<svg xmlns="http://www.w3.org/2000/svg" width="210.952" height="84.762" viewBox="0 0 210.952 84.762"><defs><style>.a{fill:#d38282;}.b{fill:#4491e0;}.c{fill:none;stroke:#f5f5fa;stroke-width:3px;}</style></defs><g transform="translate(-505.979 -248)"><g transform="translate(505.979 248)"><g transform="matrix(0.777, 0.629, -0.629, 0.777, 35.099, 0)"><path class="a" d="M0,0H18.3a0,0,0,0,1,0,0V17.92a8,8,0,0,1-8,8H8a8,8,0,0,1-8-8V0A0,0,0,0,1,0,0Z" transform="translate(0.21 28.407)"/><path class="b" d="M0,0H18.3a0,0,0,0,1,0,0V17.92a8,8,0,0,1-8,8H8a8,8,0,0,1-8-8V0A0,0,0,0,1,0,0Z" transform="translate(18.298 25.92) rotate(180)"/></g><g transform="translate(44.527 51.033) rotate(90)"><path class="a" d="M0,0H15.4a0,0,0,0,1,0,0V13.546a7.7,7.7,0,0,1-7.7,7.7h0a7.7,7.7,0,0,1-7.7-7.7V0A0,0,0,0,1,0,0Z" transform="translate(0.177 23.283)"/><path class="b" d="M0,0H15.4a0,0,0,0,1,0,0V13.546a7.7,7.7,0,0,1-7.7,7.7h0a7.7,7.7,0,0,1-7.7-7.7V0A0,0,0,0,1,0,0Z" transform="translate(15.396 21.244) rotate(180)"/></g><g transform="translate(62.032 82.261) rotate(180)"><path class="a" d="M0,0H16.009a0,0,0,0,1,0,0V13.5a8,8,0,0,1-8,8H8a8,8,0,0,1-8-8V0A0,0,0,0,1,0,0Z" transform="translate(0.184 23.569)"/><path class="b" d="M0,0H16.009a0,0,0,0,1,0,0V13.5a8,8,0,0,1-8,8H8a8,8,0,0,1-8-8V0A0,0,0,0,1,0,0Z" transform="translate(16.009 21.505) rotate(180)"/></g></g><g transform="translate(569.135 248)"><circle class="b" cx="31.025" cy="31.025" r="31.025" transform="translate(31.025 0) rotate(30)"/><line class="c" y2="64.532" transform="translate(58.513 14.438) rotate(30)"/></g><g transform="translate(654.898 248)"><g transform="matrix(0.777, 0.629, -0.629, 0.777, 35.099, 0)"><path class="a" d="M0,0H18.3a0,0,0,0,1,0,0V17.92a8,8,0,0,1-8,8H8a8,8,0,0,1-8-8V0A0,0,0,0,1,0,0Z" transform="translate(0.21 28.407)"/><path class="b" d="M0,0H18.3a0,0,0,0,1,0,0V17.92a8,8,0,0,1-8,8H8a8,8,0,0,1-8-8V0A0,0,0,0,1,0,0Z" transform="translate(18.298 25.92) rotate(180)"/></g><g transform="translate(44.527 51.033) rotate(90)"><path class="a" d="M0,0H15.4a0,0,0,0,1,0,0V13.546a7.7,7.7,0,0,1-7.7,7.7h0a7.7,7.7,0,0,1-7.7-7.7V0A0,0,0,0,1,0,0Z" transform="translate(0.177 23.283)"/><path class="b" d="M0,0H15.4a0,0,0,0,1,0,0V13.546a7.7,7.7,0,0,1-7.7,7.7h0a7.7,7.7,0,0,1-7.7-7.7V0A0,0,0,0,1,0,0Z" transform="translate(15.396 21.244) rotate(180)"/></g><g transform="translate(62.032 82.261) rotate(180)"><path class="a" d="M0,0H16.009a0,0,0,0,1,0,0V13.5a8,8,0,0,1-8,8H8a8,8,0,0,1-8-8V0A0,0,0,0,1,0,0Z" transform="translate(0.184 23.569)"/><path class="b" d="M0,0H16.009a0,0,0,0,1,0,0V13.5a8,8,0,0,1-8,8H8a8,8,0,0,1-8-8V0A0,0,0,0,1,0,0Z" transform="translate(16.009 21.505) rotate(180)"/></g></g></g></svg>