<svg xmlns="http://www.w3.org/2000/svg" width="17.226" height="17.235" viewBox="0 0 17.226 17.235"><defs><style>.a{fill:#4491e0;}</style></defs><path class="a" d="M17.63,14.641V12.093a1.23,1.23,0,0,0-1.23-1.23H11.478V8.4h1.23a1.232,1.232,0,0,0,1.23-1.23V3.48a1.232,1.232,0,0,0-1.23-1.23H9.017a1.232,1.232,0,0,0-1.23,1.23V7.172A1.232,1.232,0,0,0,9.017,8.4h1.23v2.461H5.326a1.23,1.23,0,0,0-1.23,1.23v2.548a2.461,2.461,0,1,0,1.23,0V12.093h4.922v2.548a2.461,2.461,0,1,0,1.23,0V12.093H16.4v2.548a2.461,2.461,0,1,0,1.23,0ZM9.017,3.48h3.691V7.172H9.017ZM5.941,17.015a1.23,1.23,0,1,1-1.23-1.23A1.23,1.23,0,0,1,5.941,17.015Zm6.152,0a1.23,1.23,0,1,1-1.23-1.23,1.23,1.23,0,0,1,1.23,1.23Zm4.922,1.23a1.23,1.23,0,1,1,1.23-1.23,1.23,1.23,0,0,1-1.23,1.23Z" transform="translate(-2.25 -2.25)"/></svg>