<svg xmlns="http://www.w3.org/2000/svg" width="15.573" height="15.573" viewBox="0 0 15.573 15.573"><defs><style>.a{fill:#4491e0;}</style></defs><path class="a" d="M343.929,0a2.6,2.6,0,0,0-2.6,2.6c0,1.241,1.839,3.754,2.27,4.326,0,.185,0,.366,0,.533a.325.325,0,0,0,.316.333h.009a.325.325,0,0,0,.324-.316c0-.171,0-.357,0-.547.428-.568,2.272-3.085,2.272-4.328A2.6,2.6,0,0,0,343.929,0Zm0,6.27c-.713-.981-1.947-2.849-1.947-3.675a1.947,1.947,0,0,1,3.893,0C345.876,3.421,344.643,5.289,343.929,6.27Z" transform="translate(-330.952)"/><path class="a" d="M405.983,64a.649.649,0,1,0,.649.649A.65.65,0,0,0,405.983,64Z" transform="translate(-393.005 -62.053)"/><path class="a" d="M65.947,234.667a1.947,1.947,0,1,0,1.947,1.947A1.949,1.949,0,0,0,65.947,234.667Zm0,3.244a1.3,1.3,0,1,1,1.3-1.3A1.3,1.3,0,0,1,65.947,237.911Z" transform="translate(-62.053 -227.529)"/><path class="a" d="M256.423,383.729a.324.324,0,0,0-.42.185,7.586,7.586,0,0,1-.573,1.215.325.325,0,0,0,.554.338,8.214,8.214,0,0,0,.624-1.319A.325.325,0,0,0,256.423,383.729Z" transform="translate(-247.615 -372.036)"/><path class="a" d="M186.265,460.038a3.553,3.553,0,0,1-1.13.593.325.325,0,0,0,.2.617,4.247,4.247,0,0,0,1.332-.7.325.325,0,1,0-.4-.509Z" transform="translate(-179.286 -445.978)"/><path class="a" d="M293.269,306.066a2.636,2.636,0,0,0-1.01,1.2.324.324,0,1,0,.585.281,1.938,1.938,0,0,1,.746-.918.324.324,0,0,0-.321-.564Z" transform="translate(-283.338 -296.715)"/><path class="a" d="M367.479,279.252a.325.325,0,0,0-.451.087c-.107.158-.325.375-.987.434a.324.324,0,0,0,.029.648h.029a1.84,1.84,0,0,0,1.466-.717A.324.324,0,0,0,367.479,279.252Z" transform="translate(-354.621 -270.705)"/><path class="a" d="M4.662,180.4c1.024-1.092,3.124-3.6,3.124-5.844a3.852,3.852,0,0,0-3.893-3.893A3.852,3.852,0,0,0,0,174.56c0,2.9,3.521,6.258,3.671,6.4a.322.322,0,0,0,.223.089q.355,0,.674-.024a.324.324,0,0,0,.3-.348A.319.319,0,0,0,4.662,180.4Zm-.769-.137c-.766-.782-3.244-3.483-3.244-5.707a3.21,3.21,0,0,1,3.244-3.244,3.21,3.21,0,0,1,3.244,3.244C7.138,176.784,4.66,179.485,3.893,180.267Z" transform="translate(0 -165.476)"/></svg>