<svg xmlns="http://www.w3.org/2000/svg" width="14.509" height="18.466" viewBox="0 0 14.509 18.466"><defs><style>.a{fill:#4491e0;}</style></defs><g transform="translate(-5.625 -2.25)"><path class="a" d="M15.673,15.6a3.3,3.3,0,1,1,3.3-3.3,3.3,3.3,0,0,1-3.3,3.3Zm0-5.276A1.979,1.979,0,1,0,17.651,12.3a1.979,1.979,0,0,0-1.979-1.979Z" transform="translate(-2.793 -2.793)"/><path class="a" d="M12.88,20.716,7.316,14.154q-.116-.148-.229-.3A7.181,7.181,0,0,1,5.625,9.5a7.255,7.255,0,1,1,14.509,0,7.178,7.178,0,0,1-1.461,4.351v0s-.2.26-.227.295ZM8.139,13.062s.154.2.189.247l4.551,5.368L17.437,13.3c.029-.036.183-.241.184-.242A5.87,5.87,0,0,0,18.815,9.5a5.936,5.936,0,1,0-11.871,0,5.873,5.873,0,0,0,1.2,3.558Z"/></g></svg>